<svg xmlns="http://www.w3.org/2000/svg" width="280" height="72" viewBox="0 0 280 72">
  <defs>
    <linearGradient id="lightBg" x1="0" y1="0" x2="0" y2="1">
      <stop offset="0" stop-color="#FFFFFF"/>
      <stop offset="1" stop-color="#F4F4F6"/>
    </linearGradient>
    <filter id="lightShadow" x="-10%" y="-10%" width="120%" height="130%">
      <feDropShadow dx="0" dy="2" stdDeviation="3" flood-color="#000" flood-opacity="0.12"/>
    </filter>
  </defs>
  <rect x="2" y="2" width="276" height="68" rx="14" fill="url(#lightBg)" stroke="#D8D8DC" stroke-width="1" filter="url(#lightShadow)"/>

  <!-- Apple logo -->
  <g transform="translate(22, 20) scale(1.6)" fill="#000000">
    <path d="M14.5 10.5c0-2.3 1.9-3.4 2-3.5-1.1-1.6-2.8-1.8-3.4-1.8-1.4-.1-2.8.9-3.6.9-.8 0-1.9-.9-3.1-.8-1.6 0-3.1.9-3.9 2.4-1.7 2.9-.4 7.2 1.2 9.5.8 1.1 1.7 2.4 3 2.4 1.2 0 1.7-.8 3.1-.8 1.5 0 1.9.8 3.1.8 1.3 0 2.1-1.1 2.9-2.3.9-1.3 1.3-2.6 1.3-2.7-.1 0-2.5-.9-2.6-3.8M12.2 3.6C12.9 2.7 13.4 1.6 13.3.5c-1 0-2.1.6-2.8 1.5-.6.7-1.2 1.9-1.1 3 1.1.1 2.2-.5 2.8-1.4"/>
  </g>

  <!-- Text -->
  <text x="68" y="32" font-family="-apple-system, BlinkMacSystemFont, 'Helvetica Neue', sans-serif" font-size="11" fill="#6B6B6F" letter-spacing="0.5">DOWNLOAD FOR</text>
  <text x="68" y="54" font-family="-apple-system, BlinkMacSystemFont, 'Helvetica Neue', sans-serif" font-size="20" font-weight="600" fill="#000000" letter-spacing="-0.3">Shortcuts · Light</text>
</svg>
