<svg xmlns="http://www.w3.org/2000/svg" width="1200" height="820" viewBox="0 0 1200 820" font-family="-apple-system, 'Helvetica Neue', Arial, sans-serif">
  <!-- Background -->
  <rect width="1200" height="820" fill="#F7F8FA"/>

  <!-- Title -->
  <text x="80" y="80" font-size="32" font-weight="700" fill="#1A1E26" letter-spacing="-0.5">Design Guide</text>
  <text x="80" y="108" font-size="14" fill="#6B7280">Canvas spec for custom backgrounds · all values in px</text>

  <!-- ======== Canvas diagram (left) ======== -->
  <!-- Scale: 1290 x 2590 → 260 x 520 -->
  <g transform="translate(220 160)">

    <!-- Canvas rect -->
    <rect x="0" y="0" width="260" height="520" fill="#FFFFFF" stroke="#1A1E26" stroke-width="2.5" rx="4"/>

    <!-- QR Card (980x980 → 197.6x197.6) centered, top-left (31.2, 162) -->
    <rect x="31.2" y="162" width="197.6" height="197.6" fill="#EAF1FF" stroke="#4A8BFF" stroke-width="2.5" rx="10.5"/>

    <!-- QR Code (820x820 → 165.3x165.3) inside card with 80 padding → (47.3, 178) -->
    <rect x="47.3" y="178" width="165.3" height="165.3" fill="#FFFFFF" stroke="#FF7A3C" stroke-width="2" stroke-dasharray="5 3" rx="2"/>

    <!-- 980 label inside QR card (upper) -->
    <rect x="94" y="190" width="72" height="18" fill="#EAF1FF"/>
    <text x="130" y="203" text-anchor="middle" font-size="11" font-weight="700" fill="#2F6EDB">980 × 980</text>

    <!-- 820 label inside QR code -->
    <text x="130" y="265" text-anchor="middle" font-size="11" font-weight="700" fill="#FF7A3C">820 × 820</text>

    <!-- Center dot -->
    <circle cx="130" cy="260" r="2.5" fill="#1A1E26" opacity="0.5"/>

    <!-- TOP dimension: 1290 -->
    <g stroke="#1A1E26" stroke-width="1">
      <line x1="0" y1="-26" x2="260" y2="-26"/>
      <line x1="0" y1="-30" x2="0" y2="-22"/>
      <line x1="260" y1="-30" x2="260" y2="-22"/>
    </g>
    <rect x="108" y="-38" width="44" height="20" fill="#F7F8FA"/>
    <text x="130" y="-24" text-anchor="middle" font-size="13" font-weight="600" fill="#1A1E26">1290</text>

    <!-- RIGHT dimension: 2590 -->
    <g stroke="#1A1E26" stroke-width="1">
      <line x1="286" y1="0" x2="286" y2="520"/>
      <line x1="282" y1="0" x2="290" y2="0"/>
      <line x1="282" y1="520" x2="290" y2="520"/>
    </g>
    <rect x="270" y="250" width="32" height="20" fill="#F7F8FA"/>
    <text x="286" y="264" text-anchor="middle" font-size="13" font-weight="600" fill="#1A1E26">2590</text>

  </g>

  <!-- ======== Specs table (right) ======== -->
  <g transform="translate(560 160)">

    <!-- Canvas spec -->
    <g>
      <circle cx="10" cy="14" r="8" fill="#1A1E26"/>
      <text x="32" y="19" font-size="17" font-weight="700" fill="#1A1E26">Canvas</text>
    </g>
    <g transform="translate(32 48)" font-size="13">
      <text y="0" fill="#6B7280">Dimensions</text>
      <text x="200" y="0" fill="#1A1E26" font-weight="500">1290 × 2590 px</text>
      <text y="26" fill="#6B7280">Aspect ratio</text>
      <text x="200" y="26" fill="#1A1E26" font-weight="500">Portrait · 1 : 2.01</text>
      <text y="52" fill="#6B7280">Export</text>
      <text x="200" y="52" fill="#1A1E26" font-weight="500">1x / 2x / 3x</text>
    </g>

    <line x1="0" y1="128" x2="540" y2="128" stroke="#E5E7EB" stroke-width="1"/>

    <!-- QR Card spec -->
    <g transform="translate(0 155)">
      <circle cx="10" cy="14" r="8" fill="#4A8BFF"/>
      <text x="32" y="19" font-size="17" font-weight="700" fill="#1A1E26">QR Card  <tspan fill="#6B7280" font-weight="400" font-size="14">(white slot)</tspan></text>
    </g>
    <g transform="translate(32 195)" font-size="13">
      <text y="0" fill="#6B7280">Size</text>
      <text x="200" y="0" fill="#1A1E26" font-weight="500">980 × 980 px</text>
      <text y="26" fill="#6B7280">Position</text>
      <text x="200" y="26" fill="#1A1E26" font-weight="500">Centered on canvas</text>
      <text y="52" fill="#6B7280">Center point</text>
      <text x="200" y="52" fill="#1A1E26" font-weight="500" font-family="ui-monospace, 'SF Mono', Menlo, monospace">(645, 1295)</text>
      <text y="78" fill="#6B7280">Top-left corner</text>
      <text x="200" y="78" fill="#1A1E26" font-weight="500" font-family="ui-monospace, 'SF Mono', Menlo, monospace">(155, 805)</text>
      <text y="104" fill="#6B7280">Corner radius</text>
      <text x="200" y="104" fill="#1A1E26" font-weight="500">52 px</text>
      <text y="130" fill="#6B7280">Padding from canvas</text>
      <text x="200" y="130" fill="#1A1E26" font-weight="500">155 (sides) · 805 (top/bottom)</text>
    </g>

    <line x1="0" y1="360" x2="540" y2="360" stroke="#E5E7EB" stroke-width="1"/>

    <!-- QR Code spec -->
    <g transform="translate(0 388)">
      <circle cx="10" cy="14" r="8" fill="#FF7A3C"/>
      <text x="32" y="19" font-size="17" font-weight="700" fill="#1A1E26">QR Code  <tspan fill="#6B7280" font-weight="400" font-size="14">(inside the card)</tspan></text>
    </g>
    <g transform="translate(32 428)" font-size="13">
      <text y="0" fill="#6B7280">Size</text>
      <text x="200" y="0" fill="#1A1E26" font-weight="500">820 × 820 px</text>
      <text y="26" fill="#6B7280">Inner padding</text>
      <text x="200" y="26" fill="#1A1E26" font-weight="500">80 px on each side</text>
      <text y="52" fill="#6B7280">Position</text>
      <text x="200" y="52" fill="#1A1E26" font-weight="500">Centered within card</text>
    </g>

  </g>

  <!-- Legend -->
  <g transform="translate(80 740)" font-size="12">
    <rect x="0" y="0" width="12" height="12" fill="#FFFFFF" stroke="#1A1E26" stroke-width="1.5"/>
    <text x="20" y="10" fill="#4B5563">Canvas</text>

    <rect x="120" y="0" width="12" height="12" fill="#EAF1FF" stroke="#4A8BFF" stroke-width="1.5"/>
    <text x="140" y="10" fill="#4B5563">QR card (white slot)</text>

    <rect x="320" y="0" width="12" height="12" fill="#FFFFFF" stroke="#FF7A3C" stroke-width="1.5" stroke-dasharray="3 2"/>
    <text x="340" y="10" fill="#4B5563">QR code area</text>
  </g>
</svg>
