<svg xmlns="http://www.w3.org/2000/svg" width="1600" height="900" viewBox="0 0 1600 900" font-family="-apple-system, 'SF Mono', Menlo, monospace">
  <!-- Background -->
  <rect width="1600" height="900" fill="#F7F8FA"/>

  <!-- Title -->
  <text x="80" y="90" font-family="-apple-system, 'Helvetica Neue', sans-serif" font-size="32" font-weight="700" fill="#1A1E26" letter-spacing="-0.5">Design Guide</text>
  <text x="80" y="118" font-family="-apple-system, 'Helvetica Neue', sans-serif" font-size="14" fill="#6B7280">Canvas spec for custom backgrounds · all values in px</text>

  <!-- ======== Canvas diagram (left) ======== -->
  <!-- Scale: 1290x2590 → 260x520 (scale factor 0.2008) centered at x=300 -->
  <g transform="translate(170 180)">
    <!-- Canvas rect -->
    <rect x="0" y="0" width="260" height="520" fill="#FFFFFF" stroke="#1A1E26" stroke-width="2.5" rx="4"/>

    <!-- QR Card (980x980 → 196.8x196.8) centered at (155, 805 → 31, 161.6) -->
    <rect x="31" y="161.6" width="196.8" height="196.8" fill="#FAFBFD" stroke="#4A8BFF" stroke-width="2.5" rx="10.4"/>

    <!-- QR Code (820x820 → 164.7x164.7) with 80px padding → inside card at (47, 177.6) -->
    <rect x="47" y="177.6" width="164.7" height="164.7" fill="none" stroke="#FF7A3C" stroke-width="2" stroke-dasharray="4 3" rx="2"/>

    <!-- Center cross -->
    <g stroke="#1A1E26" stroke-width="0.8" opacity="0.35">
      <line x1="130" y1="255" x2="130" y2="265"/>
      <line x1="125" y1="260" x2="135" y2="260"/>
    </g>
    <circle cx="130" cy="260" r="2.5" fill="#1A1E26"/>

    <!-- Top dimension line (canvas width) -->
    <g stroke="#1A1E26" stroke-width="1">
      <line x1="0" y1="-20" x2="260" y2="-20"/>
      <line x1="0" y1="-24" x2="0" y2="-16"/>
      <line x1="260" y1="-24" x2="260" y2="-16"/>
    </g>
    <rect x="108" y="-32" width="44" height="20" fill="#F7F8FA"/>
    <text x="130" y="-18" text-anchor="middle" font-size="13" font-weight="600" fill="#1A1E26">1290</text>

    <!-- Right dimension line (canvas height) -->
    <g stroke="#1A1E26" stroke-width="1">
      <line x1="290" y1="0" x2="290" y2="520"/>
      <line x1="286" y1="0" x2="294" y2="0"/>
      <line x1="286" y1="520" x2="294" y2="520"/>
    </g>
    <rect x="274" y="250" width="32" height="20" fill="#F7F8FA"/>
    <text x="290" y="264" text-anchor="middle" font-size="13" font-weight="600" fill="#1A1E26">2590</text>

    <!-- QR card top padding label -->
    <g stroke="#4A8BFF" stroke-width="0.8" stroke-dasharray="2 2">
      <line x1="31" y1="0" x2="31" y2="161.6"/>
    </g>
    <g stroke="#4A8BFF" stroke-width="1">
      <line x1="11" y1="0" x2="11" y2="161.6"/>
      <line x1="7" y1="0" x2="15" y2="0"/>
      <line x1="7" y1="161.6" x2="15" y2="161.6"/>
    </g>
    <rect x="-10" y="72" width="42" height="18" fill="#F7F8FA"/>
    <text x="11" y="85" text-anchor="middle" font-size="11" font-weight="500" fill="#4A8BFF">805</text>

    <!-- QR card left padding label -->
    <g stroke="#4A8BFF" stroke-width="1">
      <line x1="0" y1="140" x2="31" y2="140"/>
      <line x1="0" y1="136" x2="0" y2="144"/>
      <line x1="31" y1="136" x2="31" y2="144"/>
    </g>
    <rect x="8" y="120" width="18" height="14" fill="#F7F8FA"/>
    <text x="17" y="131" text-anchor="middle" font-size="10" font-weight="500" fill="#4A8BFF">155</text>

    <!-- QR card dimensions -->
    <rect x="100" y="252" width="60" height="16" fill="#FAFBFD"/>
    <text x="130" y="263" text-anchor="middle" font-size="11" font-weight="600" fill="#4A8BFF">980 × 980</text>

    <!-- QR code padding label -->
    <g stroke="#FF7A3C" stroke-width="0.8">
      <line x1="31" y1="177.6" x2="47" y2="177.6"/>
      <line x1="31" y1="174" x2="31" y2="181"/>
      <line x1="47" y1="174" x2="47" y2="181"/>
    </g>
    <text x="39" y="171" text-anchor="middle" font-size="9" font-weight="500" fill="#FF7A3C">80</text>

    <!-- QR code dimensions -->
    <rect x="88" y="340" width="84" height="16" fill="#FFFFFF"/>
    <text x="130" y="351" text-anchor="middle" font-size="11" font-weight="600" fill="#FF7A3C">QR 820 × 820</text>
  </g>

  <!-- ======== Specs table (right) ======== -->
  <g transform="translate(640 180)">

    <!-- Canvas spec -->
    <g>
      <circle cx="10" cy="14" r="8" fill="#1A1E26"/>
      <text x="32" y="18" font-family="-apple-system, 'Helvetica Neue', sans-serif" font-size="16" font-weight="600" fill="#1A1E26">Canvas</text>
    </g>
    <g transform="translate(32 40)" font-family="-apple-system, 'Helvetica Neue', sans-serif" font-size="13">
      <text y="0" fill="#6B7280">Dimensions</text>
      <text x="200" y="0" fill="#1A1E26" font-weight="500">1290 × 2590 px</text>
      <text y="24" fill="#6B7280">Aspect ratio</text>
      <text x="200" y="24" fill="#1A1E26" font-weight="500">Portrait, 1 : 2.01</text>
      <text y="48" fill="#6B7280">Export</text>
      <text x="200" y="48" fill="#1A1E26" font-weight="500">1x / 2x / 3x</text>
    </g>

    <!-- Divider -->
    <line x1="0" y1="115" x2="760" y2="115" stroke="#E5E7EB" stroke-width="1"/>

    <!-- QR Card spec -->
    <g transform="translate(0 140)">
      <circle cx="10" cy="14" r="8" fill="#4A8BFF"/>
      <text x="32" y="18" font-family="-apple-system, 'Helvetica Neue', sans-serif" font-size="16" font-weight="600" fill="#1A1E26">QR Card (white slot)</text>
    </g>
    <g transform="translate(32 180)" font-family="-apple-system, 'Helvetica Neue', sans-serif" font-size="13">
      <text y="0" fill="#6B7280">Size</text>
      <text x="200" y="0" fill="#1A1E26" font-weight="500">980 × 980 px (square)</text>
      <text y="24" fill="#6B7280">Position</text>
      <text x="200" y="24" fill="#1A1E26" font-weight="500">Centered on canvas</text>
      <text y="48" fill="#6B7280">Center point</text>
      <text x="200" y="48" fill="#1A1E26" font-weight="500" font-family="ui-monospace, 'SF Mono', Menlo, monospace">(645, 1295)</text>
      <text y="72" fill="#6B7280">Top-left corner</text>
      <text x="200" y="72" fill="#1A1E26" font-weight="500" font-family="ui-monospace, 'SF Mono', Menlo, monospace">(155, 805)</text>
      <text y="96" fill="#6B7280">Corner radius</text>
      <text x="200" y="96" fill="#1A1E26" font-weight="500">52 px</text>
      <text y="120" fill="#6B7280">Side / Vertical padding</text>
      <text x="200" y="120" fill="#1A1E26" font-weight="500">155 px  /  805 px</text>
    </g>

    <!-- Divider -->
    <line x1="0" y1="335" x2="760" y2="335" stroke="#E5E7EB" stroke-width="1"/>

    <!-- QR Code spec -->
    <g transform="translate(0 360)">
      <circle cx="10" cy="14" r="8" fill="#FF7A3C"/>
      <text x="32" y="18" font-family="-apple-system, 'Helvetica Neue', sans-serif" font-size="16" font-weight="600" fill="#1A1E26">QR Code (inside the card)</text>
    </g>
    <g transform="translate(32 400)" font-family="-apple-system, 'Helvetica Neue', sans-serif" font-size="13">
      <text y="0" fill="#6B7280">Size</text>
      <text x="200" y="0" fill="#1A1E26" font-weight="500">820 × 820 px</text>
      <text y="24" fill="#6B7280">Inner padding</text>
      <text x="200" y="24" fill="#1A1E26" font-weight="500">80 px on each side</text>
      <text y="48" fill="#6B7280">Position</text>
      <text x="200" y="48" fill="#1A1E26" font-weight="500">Centered within card</text>
    </g>
  </g>

  <!-- Legend at bottom -->
  <g transform="translate(80 820)" font-family="-apple-system, 'Helvetica Neue', sans-serif" font-size="12">
    <rect x="0" y="0" width="12" height="12" fill="#FFFFFF" stroke="#1A1E26" stroke-width="1.5"/>
    <text x="20" y="11" fill="#4B5563">Canvas (1290 × 2590)</text>

    <rect x="200" y="0" width="12" height="12" fill="#FAFBFD" stroke="#4A8BFF" stroke-width="1.5"/>
    <text x="220" y="11" fill="#4B5563">QR card (980 × 980)</text>

    <rect x="400" y="0" width="12" height="12" fill="none" stroke="#FF7A3C" stroke-width="1.5" stroke-dasharray="3 2"/>
    <text x="420" y="11" fill="#4B5563">QR code area (820 × 820)</text>
  </g>
</svg>
